<?xml version="1.0" encoding="UTF-8"?>
<svg id="_Слой_1" data-name="Слой 1" xmlns="http://www.w3.org/2000/svg" viewBox="0 0 412.6 250.49">
  <defs>
    <style>
      .cls-1 {
        fill: #c72538;
      }
    </style>
  </defs>
  <g>
    <path d="M27.66,211.08v4.45h.54c.36,0,.62,.07,.77,.21,.15,.14,.23,.32,.23,.54s-.08,.4-.23,.54c-.15,.14-.41,.21-.77,.21h-1.96c-.36,0-.62-.07-.77-.21-.15-.14-.23-.32-.23-.54s.08-.4,.23-.54c.15-.14,.38-.21,.7-.21v-5.84c-.26-.02-.46-.1-.59-.24-.13-.14-.2-.31-.2-.51,0-.22,.08-.4,.23-.54,.15-.14,.41-.21,.77-.21h1.64s2.03,4.5,2.03,4.5l2-4.5h1.65c.36,0,.62,.08,.77,.21,.15,.14,.23,.32,.23,.54,0,.2-.07,.37-.2,.51-.14,.14-.33,.22-.59,.24v5.84c.32,0,.55,.07,.7,.21,.15,.14,.23,.32,.23,.54s-.08,.4-.23,.54c-.15,.14-.41,.21-.77,.21h-1.97c-.35,0-.61-.07-.76-.21-.15-.14-.23-.32-.23-.54s.08-.4,.23-.54,.41-.21,.76-.21h.55v-4.45l-1.71,3.85h-1.3l-1.73-3.85Z"/>
    <path d="M50.17,214.47h-6.13c.16,.39,.43,.7,.83,.94s.93,.36,1.61,.36c.55,0,1.29-.12,2.21-.36,.38-.1,.64-.15,.79-.15,.2,0,.37,.07,.5,.21,.14,.14,.2,.32,.2,.53,0,.19-.07,.36-.22,.5-.19,.18-.67,.35-1.42,.51-.75,.16-1.48,.24-2.17,.24-1.2,0-2.15-.34-2.87-1.01-.72-.67-1.07-1.51-1.07-2.49,0-1.05,.39-1.9,1.16-2.56s1.67-.99,2.68-.99c.61,0,1.16,.11,1.67,.32,.51,.21,.89,.44,1.13,.69,.35,.36,.64,.8,.87,1.33,.16,.37,.23,.8,.23,1.28v.63Zm-1.65-1.49c-.23-.43-.53-.75-.9-.96-.37-.21-.81-.32-1.32-.32s-.94,.11-1.31,.32c-.37,.21-.67,.53-.9,.96h4.43Z"/>
    <path d="M63.57,213.12l1.19-1.92c.34-.53,.82-.79,1.45-.79,.6,0,.9,.29,.9,.88v.63c0,.56-.22,.85-.66,.85-.39,0-.63-.24-.71-.72-.16,.69-.48,1.15-.95,1.38,.32,.24,.6,.58,.85,1.04l.59,1.06c.66,0,.98,.26,.98,.78,0,.48-.25,.71-.74,.71h-.97l-1.01-1.84c-.29-.53-.6-.82-.92-.88v1.23c.35,.21,.52,.45,.52,.73,0,.51-.34,.76-1.03,.76h-.48c-.68,0-1.02-.25-1.02-.75,0-.27,.17-.52,.52-.74v-1.23c-.33,.06-.63,.36-.93,.88l-1.01,1.84h-.97c-.49,0-.74-.24-.74-.71,0-.52,.33-.78,.98-.78l.58-1.06c.25-.46,.54-.8,.86-1.04-.47-.23-.79-.7-.95-1.38-.08,.49-.32,.73-.7,.73-.45,0-.67-.28-.67-.85v-.63c0-.59,.29-.88,.87-.88,.65,0,1.14,.27,1.47,.79l1.2,1.91v-1.21c-.35-.22-.52-.47-.52-.74,0-.5,.34-.75,1.02-.75h.48c.68,0,1.03,.25,1.03,.74,0,.28-.17,.53-.52,.75v1.22Z"/>
    <path d="M81.73,217.02h-4.96v.6c0,.45-.05,.75-.16,.92s-.3,.25-.58,.25c-.33,0-.53-.09-.62-.26-.09-.17-.13-.49-.13-.96v-2.04h.44c.65,0,1.09-.11,1.32-.34s.35-.7,.35-1.41v-1.87c-.06,0-.13,0-.2,0-.69,0-1.03-.25-1.03-.75,0-.27,.08-.46,.25-.58s.5-.17,.99-.17h4.58c.49,0,.81,.06,.99,.17,.17,.11,.26,.31,.26,.58,0,.5-.34,.74-1.02,.74v3.63c.34,0,.58,.05,.71,.14,.13,.09,.22,.2,.25,.33,.04,.12,.05,.38,.05,.78v.79c0,.47-.05,.79-.16,.96-.11,.17-.3,.25-.57,.25-.5,0-.76-.37-.76-1.12v-.64Zm-2.86-5.12v1.87c0,.71-.15,1.3-.45,1.76h2.29v-3.63h-1.84Z"/>
    <path d="M94.22,211.9l1.56,2.81,1.58-2.81c-.5-.08-.75-.33-.75-.74,0-.27,.08-.46,.25-.58s.5-.17,.99-.17h.92c.49,0,.82,.06,.99,.17,.17,.11,.26,.31,.26,.58,0,.5-.32,.74-.96,.74l-3.12,5.58c-.57,1.03-1.26,1.54-2.06,1.54-.26,0-.56-.05-.89-.14-.33-.09-.53-.17-.6-.24-.07-.07-.1-.2-.1-.4v-.79c0-.47,.05-.78,.16-.95,.11-.17,.31-.25,.62-.25,.27,0,.46,.09,.56,.27,.1,.18,.16,.5,.16,.97,.04,0,.08,0,.11,0,.21,0,.45-.24,.72-.71l.3-.53-2.42-4.35c-.67,0-1.01-.25-1.01-.74,0-.27,.08-.46,.26-.58,.17-.11,.5-.17,.99-.17h.97c.49,0,.81,.06,.99,.17,.17,.11,.26,.31,.26,.58,0,.42-.25,.67-.74,.74Z"/>
    <path d="M113.72,214.41h-3.19v1.11h.15c.67,0,1,.25,1,.74s-.33,.75-1,.75h-1.74c-.67,0-1-.25-1-.75,0-.26,.08-.45,.25-.57,.17-.12,.45-.17,.85-.17v-3.63c-.53-.04-.79-.29-.79-.74,0-.5,.33-.75,1-.75h1.44c.67,0,1,.25,1,.75s-.33,.74-1,.74h-.15v1.02h3.19v-1.02h-.15c-.67,0-1-.25-1-.74s.33-.75,1-.75h1.44c.67,0,1,.25,1,.75,0,.46-.26,.7-.79,.74v3.63c.39,0,.67,.06,.84,.17,.17,.11,.26,.3,.26,.57,0,.5-.33,.75-1,.75h-1.74c-.67,0-1-.25-1-.75s.33-.74,1-.74h.15v-1.11Z"/>
    <path d="M129.85,217.02v-.35c-.37,.2-.79,.35-1.24,.45-.45,.1-.86,.15-1.23,.15-.8,0-1.45-.21-1.95-.64-.5-.42-.75-.9-.75-1.41,0-.63,.32-1.21,.96-1.75,.64-.54,1.52-.81,2.65-.81,.45,0,.97,.05,1.57,.15v-.36c0-.22-.1-.41-.29-.55-.19-.14-.56-.21-1.1-.21-.44,0-1.02,.09-1.72,.26-.26,.06-.47,.09-.61,.09-.2,0-.37-.07-.51-.21s-.21-.33-.21-.55c0-.13,.02-.24,.07-.33,.05-.09,.12-.17,.2-.22,.09-.06,.27-.12,.55-.2,.37-.1,.75-.18,1.13-.24,.38-.06,.73-.09,1.04-.09,.93,0,1.65,.2,2.16,.6,.51,.4,.77,.95,.77,1.64v3.08h.25c.36,0,.62,.07,.77,.21s.23,.32,.23,.54-.08,.4-.23,.54c-.15,.14-.41,.21-.77,.21h-1.75Zm0-2.67c-.6-.12-1.15-.18-1.65-.18-.61,0-1.13,.15-1.57,.45-.27,.19-.41,.38-.41,.58,0,.14,.07,.25,.2,.34,.24,.16,.58,.24,1,.24,.36,0,.77-.07,1.22-.21,.45-.14,.86-.33,1.21-.58v-.64Z"/>
    <path d="M143.07,216.2v2.45h.9c.36,0,.62,.07,.77,.21,.15,.14,.23,.32,.23,.54s-.08,.4-.23,.54c-.15,.14-.41,.21-.77,.21h-2.65c-.36,0-.62-.07-.77-.21s-.23-.32-.23-.54,.08-.41,.23-.54c.16-.14,.41-.21,.76-.21h.26v-6.75h-.26c-.36,0-.62-.07-.77-.21-.15-.14-.23-.32-.23-.54s.08-.4,.23-.54,.41-.21,.77-.21h1.75v.51c.35-.24,.71-.42,1.09-.53s.76-.17,1.15-.17c1.02,0,1.89,.35,2.61,1.04s1.08,1.49,1.08,2.38c0,.99-.43,1.8-1.28,2.44-.71,.53-1.51,.8-2.4,.8-.38,0-.76-.06-1.14-.17-.37-.11-.75-.28-1.12-.5Zm4.43-2.56c0-.21-.08-.48-.25-.8s-.42-.59-.76-.81c-.34-.22-.75-.32-1.21-.32-.74,0-1.33,.28-1.77,.84-.3,.38-.44,.75-.44,1.11,0,.4,.21,.79,.64,1.16,.42,.38,.95,.57,1.58,.57s1.16-.19,1.58-.56,.63-.77,.63-1.18Z"/>
    <path d="M165.22,213.84c0,.57-.16,1.13-.48,1.67-.32,.54-.79,.96-1.42,1.28-.63,.32-1.29,.48-1.97,.48s-1.33-.16-1.95-.47c-.62-.31-1.1-.74-1.42-1.28-.33-.54-.49-1.1-.49-1.69s.17-1.19,.5-1.76,.81-1.03,1.42-1.36c.62-.33,1.27-.5,1.94-.5s1.33,.17,1.96,.51c.63,.34,1.1,.79,1.42,1.36s.48,1.16,.48,1.76Zm-1.49,0c0-.48-.17-.92-.52-1.33-.47-.54-1.09-.82-1.86-.82-.67,0-1.24,.22-1.69,.65-.45,.43-.68,.93-.68,1.5,0,.47,.23,.9,.69,1.31,.46,.41,1.02,.61,1.68,.61s1.23-.2,1.69-.61c.46-.41,.68-.84,.68-1.32Z"/>
    <path d="M180.24,217.02h-4.96v.6c0,.45-.05,.75-.16,.92s-.3,.25-.58,.25c-.33,0-.53-.09-.62-.26-.09-.17-.13-.49-.13-.96v-2.04h.44c.65,0,1.09-.11,1.32-.34s.35-.7,.35-1.41v-1.87c-.06,0-.13,0-.2,0-.69,0-1.03-.25-1.03-.75,0-.27,.08-.46,.25-.58s.5-.17,.99-.17h4.58c.49,0,.81,.06,.99,.17,.17,.11,.26,.31,.26,.58,0,.5-.34,.74-1.02,.74v3.63c.34,0,.58,.05,.71,.14,.13,.09,.22,.2,.25,.33,.04,.12,.05,.38,.05,.78v.79c0,.47-.05,.79-.16,.96-.11,.17-.3,.25-.57,.25-.5,0-.76-.37-.76-1.12v-.64Zm-2.86-5.12v1.87c0,.71-.15,1.3-.45,1.76h2.29v-3.63h-1.84Z"/>
    <path d="M195.81,214.41h-3.19v1.11h.15c.67,0,1,.25,1,.74s-.33,.75-1,.75h-1.74c-.67,0-1-.25-1-.75,0-.26,.08-.45,.25-.57,.17-.12,.45-.17,.85-.17v-3.63c-.53-.04-.79-.29-.79-.74,0-.5,.33-.75,1-.75h1.44c.67,0,1,.25,1,.75s-.33,.74-1,.74h-.15v1.02h3.19v-1.02h-.15c-.67,0-1-.25-1-.74s.33-.75,1-.75h1.44c.67,0,1,.25,1,.75,0,.46-.26,.7-.79,.74v3.63c.39,0,.67,.06,.84,.17,.17,.11,.26,.3,.26,.57,0,.5-.33,.75-1,.75h-1.74c-.67,0-1-.25-1-.75s.33-.74,1-.74h.15v-1.11Z"/>
    <path d="M207.07,210.4h2c.67,0,1,.25,1,.75s-.33,.74-1,.74h-.33v1.04h.32c1.06,0,1.8,.21,2.22,.62s.63,.91,.63,1.5-.23,1.09-.69,1.44c-.46,.35-1.15,.52-2.06,.52h-2.1c-.67,0-1-.25-1-.75s.33-.74,1-.74h.18v-3.63h-.18c-.67,0-1-.25-1-.74s.33-.75,1-.75Zm1.68,5.12h.34c.89,0,1.34-.19,1.34-.57,0-.15-.08-.27-.24-.37-.16-.1-.56-.15-1.21-.15h-.23v1.09Zm4.07-3.63h-.15c-.19,0-.37-.07-.51-.21s-.22-.32-.22-.53c0-.5,.3-.75,.89-.75h1.29c.67,0,1,.24,1,.71s-.27,.74-.8,.79v3.63c.54,.02,.8,.29,.8,.79,0,.47-.33,.71-1,.71h-1.29c-.59,0-.89-.25-.89-.74,0-.23,.08-.41,.23-.55,.16-.14,.32-.2,.5-.2h.15v-3.63Z"/>
    <path d="M223.58,215.53v-3.63c-.62,0-.92-.25-.92-.74s.33-.75,1-.75h1.7c.38,0,.65,.06,.83,.18,.17,.12,.26,.31,.26,.58s-.09,.45-.26,.57-.45,.17-.83,.17h-.28v2.96l3.56-4.45h1.73c.67,0,1,.25,1,.75s-.33,.74-1,.74h-.23v3.63c.68,0,1.02,.25,1.02,.74s-.33,.75-1,.75h-1.7c-.66,0-.99-.25-.99-.75s.33-.74,.99-.74h.18v-2.98l-3.56,4.47h-1.49c-.61,0-.91-.25-.91-.75s.3-.74,.91-.74Zm1.56-8.27c.13,0,.23,.03,.3,.09,.07,.06,.14,.2,.19,.41,.05,.21,.19,.39,.4,.53,.28,.18,.61,.28,.98,.28s.69-.08,.94-.25c.24-.16,.39-.35,.45-.56,.06-.21,.12-.35,.19-.41,.07-.06,.17-.09,.3-.09,.14,0,.26,.05,.35,.14,.09,.09,.13,.22,.13,.37,0,.42-.22,.82-.66,1.2-.44,.38-1.01,.57-1.7,.57s-1.26-.19-1.7-.57c-.44-.38-.66-.78-.66-1.2,0-.15,.05-.27,.14-.37,.09-.09,.21-.14,.35-.14Z"/>
    <path d="M260.57,210.27c.25-.04,.45-.06,.6-.06,.67,0,1.25,.33,1.73,1,.48,.67,.72,1.5,.72,2.48s-.21,1.75-.64,2.43c-.43,.68-1.02,1.03-1.78,1.03-.16,0-.37-.01-.63-.04v.5h.31c.49,0,.82,.06,.99,.17,.17,.11,.26,.3,.26,.58s-.09,.46-.26,.58-.5,.17-.99,.17h-2.08c-.48,0-.81-.06-.98-.17-.17-.11-.26-.3-.26-.58s.08-.46,.25-.58,.5-.17,.99-.17h.29v-.5c-.26,.03-.47,.04-.62,.04-.75,0-1.34-.35-1.77-1.05-.43-.7-.65-1.5-.65-2.42,0-.98,.24-1.81,.72-2.48,.48-.67,1.07-1.01,1.76-1.01,.13,0,.32,.02,.55,.06v-.91h-.37c-.33,0-.56-.05-.69-.15-.14-.1-.2-.28-.2-.54,0-.18,.05-.35,.16-.51,.11-.16,.44-.26,.99-.3,.55-.04,.84-.06,.87-.06,.29,0,.48,.09,.59,.26,.1,.17,.16,.5,.16,.97v1.24Zm-1.49,1.49c-.18-.03-.3-.05-.39-.05-.31,0-.58,.18-.81,.54s-.34,.84-.34,1.44c0,.56,.1,1.03,.29,1.41,.19,.37,.48,.56,.86,.56,.11,0,.24-.02,.39-.05v-3.85Zm1.49,0v3.85c.19,.03,.33,.05,.44,.05,.35,0,.63-.19,.83-.56,.2-.37,.29-.86,.29-1.47s-.11-1.05-.32-1.4-.49-.52-.82-.52c-.07,0-.21,.02-.42,.05Z"/>
    <path d="M280.01,214.47h-6.13c.16,.39,.43,.7,.83,.94,.4,.24,.93,.36,1.61,.36,.55,0,1.29-.12,2.21-.36,.38-.1,.64-.15,.79-.15,.2,0,.37,.07,.5,.21s.2,.32,.2,.53c0,.19-.07,.36-.22,.5-.19,.18-.67,.35-1.42,.51-.75,.16-1.48,.24-2.17,.24-1.19,0-2.15-.34-2.87-1.01-.72-.67-1.08-1.51-1.08-2.49,0-1.05,.39-1.9,1.16-2.56,.77-.66,1.67-.99,2.68-.99,.61,0,1.16,.11,1.67,.32s.89,.44,1.13,.69c.35,.36,.64,.8,.87,1.33,.16,.37,.23,.8,.23,1.28v.63Zm-1.65-1.49c-.23-.43-.53-.75-.9-.96-.37-.21-.81-.32-1.32-.32s-.94,.11-1.31,.32c-.37,.21-.67,.53-.9,.96h4.43Z"/>
    <path d="M295.01,210.67c.18-.17,.36-.26,.55-.26,.21,0,.39,.08,.53,.23,.14,.15,.21,.41,.21,.76v.96c0,.36-.07,.61-.21,.77-.14,.15-.32,.23-.54,.23-.2,0-.38-.06-.52-.17-.1-.09-.18-.27-.24-.54-.06-.27-.2-.47-.42-.6-.39-.23-.9-.35-1.51-.35-.7,0-1.27,.21-1.69,.62s-.64,.94-.64,1.57c0,.58,.2,1.04,.61,1.38,.41,.34,1.09,.51,2.03,.51,.62,0,1.13-.06,1.52-.19,.23-.08,.46-.21,.66-.4,.21-.19,.4-.28,.57-.28,.2,0,.38,.08,.53,.23,.15,.15,.22,.33,.22,.53,0,.33-.23,.64-.68,.94-.67,.44-1.65,.66-2.94,.66-1.16,0-2.07-.24-2.71-.72-.88-.65-1.31-1.53-1.31-2.65,0-1.06,.35-1.94,1.06-2.64s1.63-1.05,2.78-1.05c.41,0,.8,.04,1.15,.12,.35,.08,.68,.19,.98,.35Z"/>
    <path d="M309.82,211.9v3.63h1c.67,0,1,.25,1,.74s-.33,.75-1,.75h-3.5c-.67,0-1-.25-1-.75s.33-.74,1-.74h1v-3.63h-1.62v1.42c0,.67-.25,1-.74,1s-.75-.33-.75-1v-2.92h7.74v2.92c0,.67-.25,1-.75,1s-.74-.33-.74-1v-1.42h-1.64Z"/>
    <path d="M322.08,215.53v-3.63c-.62,0-.92-.25-.92-.74s.33-.75,1-.75h1.7c.38,0,.65,.06,.83,.18,.17,.12,.26,.31,.26,.58s-.09,.45-.26,.57-.45,.17-.83,.17h-.28v2.96l3.56-4.45h1.73c.67,0,1,.25,1,.75s-.33,.74-1,.74h-.23v3.63c.68,0,1.02,.25,1.02,.74s-.33,.75-1,.75h-1.7c-.66,0-.99-.25-.99-.75s.33-.74,.99-.74h.18v-2.98l-3.56,4.47h-1.49c-.61,0-.91-.25-.91-.75s.3-.74,.91-.74Z"/>
    <path d="M338.88,215.53v-3.63h-.23c-.67,0-1-.25-1-.74s.33-.75,1-.75h3.48c1.94,0,2.92,.58,2.92,1.74,0,.51-.25,.99-.74,1.42,.88,.32,1.32,.82,1.32,1.52,0,.56-.22,1.03-.66,1.39-.44,.36-1.17,.55-2.19,.55h-4.12c-.67,0-1-.25-1-.75s.33-.74,1-.74h.23Zm1.49-2.59h1.38c.86,0,1.37-.05,1.54-.16,.17-.1,.25-.23,.25-.39,0-.33-.5-.5-1.49-.5h-1.68v1.04Zm0,2.59h2.32c.96,0,1.44-.19,1.44-.58,0-.2-.1-.34-.31-.41-.2-.07-.69-.1-1.44-.1h-2v1.09Z"/>
    <path d="M359.69,217.02v-.35c-.37,.2-.79,.35-1.24,.45-.45,.1-.86,.15-1.23,.15-.8,0-1.45-.21-1.95-.64-.5-.42-.75-.9-.75-1.41,0-.63,.32-1.21,.96-1.75,.64-.54,1.52-.81,2.65-.81,.45,0,.97,.05,1.57,.15v-.36c0-.22-.1-.41-.29-.55-.19-.14-.56-.21-1.1-.21-.44,0-1.02,.09-1.72,.26-.26,.06-.47,.09-.61,.09-.2,0-.37-.07-.51-.21s-.21-.33-.21-.55c0-.13,.02-.24,.07-.33,.05-.09,.12-.17,.2-.22,.09-.06,.27-.12,.55-.2,.37-.1,.75-.18,1.13-.24,.38-.06,.73-.09,1.04-.09,.93,0,1.65,.2,2.16,.6,.51,.4,.77,.95,.77,1.64v3.08h.25c.36,0,.62,.07,.77,.21s.23,.32,.23,.54-.08,.4-.23,.54c-.15,.14-.41,.21-.77,.21h-1.75Zm0-2.67c-.6-.12-1.15-.18-1.65-.18-.61,0-1.13,.15-1.57,.45-.27,.19-.41,.38-.41,.58,0,.14,.07,.25,.2,.34,.24,.16,.58,.24,1,.24,.36,0,.77-.07,1.22-.21,.45-.14,.86-.33,1.21-.58v-.64Z"/>
    <path d="M377.63,211.9v3.63c.69,0,1.03,.25,1.03,.74,0,.27-.09,.47-.26,.58s-.5,.17-.99,.17h-1.05c-.49,0-.81-.06-.99-.17-.17-.11-.26-.31-.26-.58,0-.5,.34-.74,1.02-.74v-3.63h-1.94v2.7c0,.87-.21,1.52-.64,1.96-.43,.43-1.01,.65-1.74,.65-.98,0-1.47-.2-1.47-.6v-.76c0-.42,.05-.71,.16-.88,.11-.16,.29-.24,.54-.24,.46,0,.7,.31,.72,.93h.16c.27,0,.46-.07,.59-.23,.13-.16,.19-.44,.19-.83v-2.7c-.54,0-.9-.05-1.07-.16-.18-.11-.27-.3-.27-.58s.08-.46,.26-.58c.17-.11,.5-.17,.99-.17h4.8c.49,0,.81,.06,.99,.17,.17,.11,.26,.31,.26,.58,0,.23-.08,.42-.24,.55-.16,.13-.42,.2-.79,.19Z"/>
    <path d="M389.99,210.4c.67,0,1,.25,1,.75s-.33,.74-1,.74h-.36v1.04h2.29c1.15,0,1.93,.21,2.34,.63,.41,.42,.62,.92,.62,1.48,0,1.31-.95,1.97-2.85,1.97h-4.12c-.67,0-1-.25-1-.75s.33-.74,1-.74h.23v-3.63h-.23c-.67,0-1-.25-1-.74s.33-.75,1-.75h2.09Zm-.36,5.12h2.32c.96,0,1.44-.19,1.44-.57,0-.19-.1-.33-.31-.41-.2-.08-.69-.12-1.44-.12h-2v1.09Z"/>
  </g>
  <g>
    <path d="M98.3,149.22c0,.89,.54,1.34,1.61,1.34h31.19v4.6l-1.07,1.21h-30.12c-2.38,0-4.37-.66-5.97-1.99-1.59-1.32-2.39-3.05-2.39-5.16v-16.98c0-2.12,.8-3.84,2.39-5.16,1.59-1.33,3.58-1.99,5.97-1.99h30.12l1.07,1.21v4.6h-31.19c-1.07,0-1.61,.45-1.61,1.34v16.98Z"/>
    <path d="M174.35,126.99c1.37,1.27,2.05,3.02,2.05,5.25v4.65c0,2.23-.69,3.98-2.05,5.25-1.37,1.27-3.47,1.9-6.3,1.9h-1.7l10.95,11.04v1.3h-7.24l-12.24-12.33h-14.16v12.33h-6.75v-31.28h31.14c2.83,0,4.93,.63,6.3,1.9Zm-6.3,11.24c1.07,0,1.61-.45,1.61-1.34v-4.65c0-.89-.54-1.34-1.61-1.34h-24.4v7.33h24.4Z"/>
    <path d="M222.61,125.09v1.34l-18.1,17.83v12.11h-6.79v-12.24l-17.92-17.7v-1.34h7.51l13.99,14.03,13.94-14.03h7.37Z"/>
    <path d="M232.52,136.49c0,.89,.52,1.34,1.56,1.34h22.88c2.83,0,4.93,.63,6.3,1.9,1.37,1.27,2.05,3.02,2.05,5.25v4.24c0,2.23-.68,3.98-2.05,5.25-1.37,1.27-3.47,1.9-6.3,1.9h-30.16l-1.07-1.21v-4.6h31.23c1.04,0,1.56-.45,1.56-1.34v-4.24c0-.89-.52-1.34-1.56-1.34h-22.88c-2.83,0-4.93-.63-6.3-1.9-1.37-1.27-2.05-3.02-2.05-5.25v-4.24c0-2.24,.68-3.98,2.05-5.25,1.37-1.27,3.47-1.9,6.3-1.9h29.22l1.07,1.21v4.6h-30.29c-1.04,0-1.56,.45-1.56,1.34v4.24Z"/>
    <path d="M269.34,125.09h43.16v5.81h-18.19v25.47h-6.75v-25.47h-18.23v-5.81Z"/>
    <path d="M305.35,156.37v-1.3l20.11-29.98h8.8l20.15,29.98v1.3h-7.33l-4.87-7.37h-25.33l-4.83,7.37h-6.7Zm15.37-13.18h17.65l-8.85-13.45-8.8,13.45Z"/>
    <path d="M358.21,125.09h6.75v25.47h29.94v5.81h-36.68v-31.28Z"/>
    <path d="M151.81,177.37c0,.84,.49,1.26,1.47,1.26h21.46c2.65,0,4.63,.59,5.91,1.78,1.29,1.19,1.93,2.83,1.93,4.93v3.98c0,2.1-.64,3.74-1.93,4.93-1.28,1.19-3.26,1.78-5.91,1.78h-28.3l-1.01-1.13v-4.32h29.3c.98,0,1.47-.42,1.47-1.26v-3.98c0-.84-.49-1.26-1.47-1.26h-21.46c-2.65,0-4.63-.59-5.91-1.78-1.29-1.19-1.93-2.83-1.93-4.93v-3.98c0-2.1,.64-3.74,1.93-4.93,1.28-1.19,3.26-1.78,5.91-1.78h27.42l1.01,1.13v4.32h-28.42c-.98,0-1.47,.42-1.47,1.26v3.98Z"/>
    <path d="M194.15,189.32c0,.84,.5,1.26,1.51,1.26h29.26v4.32l-1.01,1.13h-28.25c-2.24,0-4.1-.62-5.6-1.87-1.49-1.24-2.24-2.86-2.24-4.84v-15.93c0-1.99,.75-3.6,2.24-4.84,1.5-1.24,3.36-1.87,5.6-1.87h28.25l1.01,1.13v4.32h-29.26c-1.01,0-1.51,.42-1.51,1.26v15.93Z"/>
    <path d="M265.5,168.46c1.28,1.19,1.93,2.83,1.93,4.93v4.36c0,2.1-.64,3.74-1.93,4.92-1.29,1.19-3.26,1.78-5.91,1.78h-1.59l10.27,10.35v1.22h-6.79l-11.49-11.57h-13.29v11.57h-6.33v-29.34h29.22c2.66,0,4.63,.59,5.91,1.78Zm-5.91,10.54c1.01,0,1.51-.42,1.51-1.26v-4.36c0-.84-.5-1.26-1.51-1.26h-22.89v6.87h22.89Z"/>
    <path d="M273.33,166.68h34.71v5.45h-28.38v6.5h28.38v5.45h-28.38v6.5h28.38v5.45h-34.71v-29.34Z"/>
    <path d="M313.91,166.68h34.71v5.45h-28.38v6.5h28.38v5.45h-28.38v6.5h28.38v5.45h-34.71v-29.34Z"/>
    <path d="M388.53,188.98v-22.3h6.37v29.34h-6.37l-27.71-22.3v22.3h-6.33v-29.34h6.33l27.71,22.3Z"/>
  </g>
  <path class="cls-1" d="M165.36,38.21c-.55-.07-1.01-.19-1.48-.19-43.17,.02-86.34,.04-129.51,.08-.21,0-.43,.18-.61,.27-.47,.77-.31,1.59-.32,2.38-.17,13.68-.32,27.36-.49,41.04-.27,21.44-.56,42.88-.83,64.31-.16,13.04-.31,26.08-.46,39.12-.01,1.11,.03,2.21,.06,3.42,.57,.14,1,.32,1.45,.35,.8,.06,1.6,.03,2.4,.03,30.3,0,60.6,0,90.9,0,1.03,0,2.11-.04,3.09,.22,2.28,.62,2.99,3.24,1.42,4.95-.45,.49-1,.82-1.66,.88-.95,.08-1.91,.14-2.87,.14-20.07,0-40.13,0-60.2,0-11.75,0-23.5,0-35.26,0-.88,0-1.77,.02-2.63-.08-1.79-.21-2.7-1.2-2.82-2.99-.04-.56-.02-1.12-.02-1.68,.22-21.36,.43-42.72,.65-64.08,.13-12.48,.29-24.96,.45-37.44,.22-17.36,.45-34.72,.68-52.08,0-.72,0-1.44,.09-2.16,.19-1.63,1.18-2.61,2.79-2.77,.63-.06,1.28-.04,1.92-.04,45.01,0,90.02,0,135.03,0,.64,0,1.28-.03,1.92,.04,1.5,.16,2.5,1.12,2.7,2.59,.08,.63,.08,1.28,.08,1.92,0,23.36,0,46.72,0,70.08,0,.56-.04,1.12-.04,1.68,0,1.41-1.21,2.73-2.75,2.8-1.65,.07-2.99-.9-3.27-2.54-.12-.7-.07-1.44-.08-2.15,0-6.4,0-12.8,0-19.2,0-15.28,0-30.56,0-45.84,0-.95,.16-1.92-.33-3.08Z"/>
  <path class="cls-1" d="M74.96,53.08c-.06,.56-.15,1.03-.15,1.5,0,39.52,.03,79.03,.05,118.55,0,.22,.16,.44,.27,.73,.28,.08,.57,.21,.87,.22,.72,.04,1.44,.04,2.16,.04,14.47,0,28.94,0,43.4,0,.95,0,1.9-.03,2.98-.05,.13-.65,.31-1.17,.33-1.69,.05-1.28,0-2.56,.03-3.84,0-.56,0-1.13,.13-1.67,.33-1.34,1.68-2.33,3.02-2.3,1.46,.03,2.73,1.18,2.89,2.7,.08,.79,.06,1.6,.06,2.4,0,2.32-.07,4.64,.01,6.96,.08,2.33-1.17,3.7-3.66,3.69-.48,0-.96,.01-1.44,.01-17.35,0-34.69,0-52.04,0-.88,0-1.77,0-2.63-.14-1.53-.24-2.37-1.21-2.5-2.76-.05-.64-.03-1.28-.03-1.92,0-41.36,0-82.71,0-124.07,0-.64-.02-1.28,.03-1.92,.12-1.65,.97-2.67,2.61-2.95,.86-.15,1.75-.12,2.63-.12,12.31,0,24.62,0,36.93,0,5.12,0,10.23,0,15.35,0,.72,0,1.45,0,2.15,.13,1.63,.31,2.46,1.31,2.57,2.99,.04,.64,.03,1.28,.03,1.92,0,19.2,0,38.4,0,57.59,0,.72,.02,1.44-.06,2.16-.17,1.59-1.31,2.61-2.88,2.64-1.55,.03-2.85-.94-3.08-2.45-.13-.86-.09-1.75-.09-2.63,0-17.52,0-35.04,0-52.55,0-1.03-.05-2.05-.09-3.18-.58-.13-1.02-.27-1.47-.32-.55-.05-1.12-.02-1.68-.02-14.55,0-29.1,0-43.64,0-.94,0-1.91-.17-3.05,.36Z"/>
  <path class="cls-1" d="M148.07,47.77c2.39,0,4.79,0,7.18,0,.56,0,1.12-.02,1.67,.03,1.59,.16,2.63,1.18,2.81,2.76,.05,.39,.04,.8,.04,1.2,0,5.19,.02,10.38,0,15.57-.01,3.15-1,4.13-4.16,4.15-5.18,.02-10.37,0-15.56,0-.4,0-.8,.02-1.19-.04-1.67-.25-2.71-1.35-2.88-3.03-.04-.4-.02-.8-.02-1.2,0-5.03,.09-10.06-.04-15.09-.07-2.67,.95-4.57,4.49-4.38,2.55,.14,5.1,.03,7.66,.03Zm5.35,17.31c.37-2.53,.34-8.92-.01-10.81-1.15-.7-2.45-.34-3.69-.4-1.19-.05-2.39-.05-3.58,0-1.24,.05-2.53-.26-3.85,.42-.37,2.86-.12,5.72-.17,8.57-.01,.69,.12,1.38,.19,2.04,.97,.51,1.86,.41,2.72,.39,2.77-.06,5.55,.21,8.4-.2Z"/>
  <path class="cls-1" d="M147.69,107.16c-2.4,0-4.8,0-7.19,0-.56,0-1.12,.01-1.68-.04-1.59-.16-2.63-1.17-2.83-2.76-.06-.47-.04-.96-.04-1.44,0-5.04,0-10.08,0-15.12,0-.24,0-.48,0-.72,.1-2.31,1.1-3.34,3.37-3.48,.4-.02,.8-.02,1.2-.02,4.88,0,9.75,0,14.63,0,.64,0,1.28,0,1.92,.07,1.53,.18,2.47,1.12,2.65,2.62,.06,.47,.05,.96,.05,1.44,0,5.12-.07,10.24,.03,15.36,.06,2.83-1.11,4.24-4.2,4.11-2.63-.11-5.27-.02-7.91-.02Zm5.63-17.2c-2.52-.35-9.09-.3-10.82,.07-.48,1.62-.63,4.88-.38,9.27,.03,.53,.23,1.05,.35,1.56,.44,.07,.75,.17,1.06,.17,2.88,.01,5.75,.02,8.63,0,.44,0,.88-.23,1.27-.33,.38-2.5,.32-8.8-.11-10.73Z"/>
  <path class="cls-1" d="M39.41,131.06c0-2.47,0-4.95,0-7.42,0-.56,0-1.12,.07-1.67,.18-1.34,1.13-2.35,2.46-2.58,.55-.09,1.11-.07,1.67-.07,5.11,0,10.21,.1,15.32-.04,3.15-.09,4.41,1.58,4.34,4.3-.13,5.03-.04,10.06-.04,15.09,0,.4,.01,.8-.02,1.2-.15,1.8-1.23,2.92-3.03,3.12-.39,.04-.8,.03-1.2,.03-5.11,0-10.21,0-15.32,0-.08,0-.16,0-.24,0-3-.05-3.98-1.02-4.01-4.04-.03-2.63,0-5.27,0-7.9Zm17.39,5.43c.1-.34,.22-.57,.23-.8,.03-2.88,.07-5.75,.03-8.63-.01-1.25-.34-1.57-1.58-1.59-2.8-.04-5.59-.03-8.39,0-.45,0-.9,.22-1.3,.33-.36,2.08-.36,8.6,0,10.71,.49,.1,1.02,.26,1.55,.29,3.28,.21,7.65,.06,9.46-.32Z"/>
  <path class="cls-1" d="M39.41,166.92c0-2.47,0-4.95,0-7.42,0-.56,0-1.12,.07-1.67,.18-1.34,1.13-2.35,2.46-2.58,.55-.09,1.11-.07,1.67-.07,5.11,0,10.21,.1,15.32-.04,3.15-.09,4.41,1.58,4.34,4.3-.13,5.03-.04,10.06-.04,15.09,0,.4,.01,.8-.02,1.2-.15,1.8-1.23,2.92-3.03,3.12-.39,.04-.8,.03-1.2,.03-5.11,0-10.21,0-15.32,0-.08,0-.16,0-.24,0-3-.05-3.98-1.02-4.01-4.04-.03-2.63,0-5.27,0-7.9Zm17.39,5.43c.1-.34,.22-.57,.23-.8,.03-2.88,.07-5.75,.03-8.63-.01-1.25-.34-1.57-1.58-1.59-2.8-.04-5.59-.03-8.39,0-.45,0-.9,.22-1.3,.33-.36,2.08-.36,8.6,0,10.71,.49,.1,1.02,.26,1.55,.29,3.28,.21,7.65,.06,9.46-.32Z"/>
  <path class="cls-1" d="M39.41,59.42c0-2.39,0-4.79,0-7.18,0-.56-.01-1.12,.05-1.67,.17-1.58,1.21-2.59,2.8-2.76,.47-.05,.96-.03,1.43-.03,5.03,0,10.05,0,15.08,0,.16,0,.32,0,.48,0,2.86,.05,3.95,1.07,3.96,3.87,.03,5.35,.03,10.7,0,16.05-.02,2.62-1.16,3.76-3.84,3.78-5.34,.04-10.69,.01-16.03,.01-.32,0-.64,0-.96-.03-2.02-.25-3-1.7-2.97-3.16,.04-1.76,0-3.51,0-5.27,0-1.2,0-2.39,0-3.59Zm17.58,5.66c.19-3.45,.1-6.63,.06-9.8,0-.37-.2-.74-.32-1.16-.45-.09-.83-.23-1.2-.23-3.02,0-6.04,.03-9.07,.07-.21,0-.42,.19-.61,.28-.45,1.9-.45,8.71,.02,10.83,.64,.07,1.34,.21,2.03,.2,2.92-.05,5.86,.2,9.1-.19Z"/>
  <path class="cls-1" d="M51.29,107.16c-2.56,0-5.12,0-7.67,0-.64,0-1.29,.02-1.91-.12-1.19-.26-1.96-1.04-2.2-2.26-.11-.54-.1-1.11-.1-1.67,0-5.12,.07-10.24-.03-15.36-.06-3.11,1.27-4.22,4.13-4.18,5.19,.08,10.39,.1,15.58,0,3.09-.06,4.22,1.52,4.16,4.21-.11,5.04-.03,10.08-.03,15.12,0,.4,.02,.8-.02,1.2-.15,1.85-1.2,2.94-3.05,3.03-1.59,.08-3.2,.03-4.79,.04-1.36,0-2.72,0-4.08,0Zm5.41-6.39c.64-1.09,.34-2.32,.39-3.49,.05-1.28,.05-2.56,0-3.84-.04-1.17,.26-2.39-.45-3.53-1.83-.34-3.67-.18-5.49-.15-1.8,.03-3.64-.34-5.45,.33-.33,1.82-.19,3.58-.15,5.32,.04,1.8-.36,3.64,.32,5.36,2.17,.38,8.93,.37,10.84-.01Z"/>
</svg>