<svg xmlns="http://www.w3.org/2000/svg" id="Icons" viewBox="0 0 60 60" width="300" height="300" version="1.1">
  <g transform="matrix(1,0,0,1,0,0)">
    <path d="M58.663,9.542a3.221,3.221,0,0,0-2.945-.392l-.383.14A24.954,24.954,0,0,1,46,11.075a24.171,24.171,0,0,1-8.32-1.421A16,16,0,0,0,7,16v7a4.006,4.006,0,0,0,3.138,3.906l.406,2.429a8.552,8.552,0,0,0,3.616,5.654c.277.187.571.394.882.613.591.416,1.251.874,1.958,1.318v1.331L9.185,40.545A13.012,13.012,0,0,0,0,53.039V57a3,3,0,0,0,3,3H43a3,3,0,0,0,3-3V53.039a13.011,13.011,0,0,0-9.186-12.494L29,38.251V36.92c.707-.444,1.367-.9,1.958-1.318.311-.219.605-.426.883-.614a8.478,8.478,0,0,0,2.3-2.37,8.9,8.9,0,0,0,2.354,2.236c.306.2.631.417.975.65C39.655,36.979,42.649,39,46,39s6.345-2.021,8.532-3.5c.344-.233.669-.452.975-.65a8.79,8.79,0,0,0,3.9-5.838A39.609,39.609,0,0,0,60,22.224V12.075A3.1,3.1,0,0,0,58.663,9.542ZM13.109,6.106A13.989,13.989,0,0,1,35.116,8.981a3.212,3.212,0,0,0-1.779.561A3.1,3.1,0,0,0,32,12.075v2.974A20.381,20.381,0,0,1,24.382,12.4a2.612,2.612,0,0,0-2.776.008,20.679,20.679,0,0,1-7.927,2.7,4.565,4.565,0,0,0-3.611,4.009A3.963,3.963,0,0,0,9,19.549V16A13.866,13.866,0,0,1,13.109,6.106ZM28.287,40.127l2.526.741-2.942,5.171a.273.273,0,0,1-.179.127.264.264,0,0,1-.2-.035l-2.97-2.238ZM33.1,41.54A25.874,25.874,0,0,1,30.427,58H27.479a2.623,2.623,0,0,0,.426-2.239L26.066,49.1l.592-1.185a2.086,2.086,0,0,0,1.441.205,2.287,2.287,0,0,0,1.5-1.08l3.184-5.6Zm-20.2,0,.318-.093,3.194,5.614A2.277,2.277,0,0,0,17.9,48.124a2.25,2.25,0,0,0,1.45-.187l.583,1.167L18.1,55.761A2.616,2.616,0,0,0,18.522,58H15.573A25.874,25.874,0,0,1,12.9,41.54ZM23,45.252l2,1.507L24.382,48H21.618L21,46.76ZM20.244,56.967a.666.666,0,0,1-.222-.673L21.761,50h2.478l1.739,6.294a.669.669,0,0,1-.222.674L24.615,58h-3.23ZM18.525,46.119a.275.275,0,0,1-.386-.063l-2.952-5.188,2.526-.741,3.766,3.767ZM2,57V53.039A11,11,0,0,1,9.748,42.465l1.005-.3A28.536,28.536,0,0,0,13.29,58H3A1,1,0,0,1,2,57Zm42-3.961V57a1,1,0,0,1-1,1H32.71a28.536,28.536,0,0,0,2.537-15.83l1,.3A11,11,0,0,1,44,53.039ZM27,38.586l-4,4-4-4v-.572A9.542,9.542,0,0,0,23,39a9.542,9.542,0,0,0,4-.986Zm3.721-5.255c-.286.193-.592.408-.914.636C27.888,35.318,25.5,37,23,37s-4.888-1.682-6.807-3.033c-.322-.228-.628-.443-.913-.635a6.542,6.542,0,0,1-2.763-4.327l-.531-3.17A1,1,0,0,0,11,25a2,2,0,0,1,0-4,1,1,0,0,0,1-1,2.787,2.787,0,0,1,1.961-2.92,22.675,22.675,0,0,0,8.7-2.976.616.616,0,0,1,.666-.008A22.634,22.634,0,0,0,32,17.073v5.151a39.609,39.609,0,0,0,.589,6.792,8.53,8.53,0,0,0,.423,1.519A6.531,6.531,0,0,1,30.721,33.331ZM58,22.224a37.52,37.52,0,0,1-.56,6.448,6.784,6.784,0,0,1-3.017,4.5c-.317.2-.653.43-1.01.671C51.331,35.251,48.738,37,46,37s-5.331-1.749-7.413-3.154c-.357-.241-.693-.467-1.01-.671a6.784,6.784,0,0,1-3.017-4.5A37.52,37.52,0,0,1,34,22.224V12.075a1.192,1.192,0,0,1,1.6-1.046A29.721,29.721,0,0,0,46,13.075a26.773,26.773,0,0,0,10.025-1.907,1.483,1.483,0,0,1,1.491.012,1.092,1.092,0,0,1,.484.895Z" fill="#c72538"/>
    <path d="M42.22,23.554a1.655,1.655,0,0,0,1.792.305A1.645,1.645,0,0,0,45,22.35V22a4.775,4.775,0,0,0-4.5-5A4.775,4.775,0,0,0,36,22v.35a1.645,1.645,0,0,0,.988,1.509,1.669,1.669,0,0,0,1.81-.323,2.959,2.959,0,0,1,3.422.018Zm-4.2-1.9A2.718,2.718,0,0,1,40.5,19a2.719,2.719,0,0,1,2.483,2.652,5.061,5.061,0,0,0-4.966,0Z" fill="#c72538"/>
    <path d="M51.5,17A4.775,4.775,0,0,0,47,22v.35a1.645,1.645,0,0,0,.988,1.509,1.669,1.669,0,0,0,1.81-.323,2.959,2.959,0,0,1,3.422.018,1.655,1.655,0,0,0,1.792.305A1.645,1.645,0,0,0,56,22.35V22A4.775,4.775,0,0,0,51.5,17Zm0,4a4.875,4.875,0,0,0-2.483.65,2.488,2.488,0,1,1,4.966,0A4.851,4.851,0,0,0,51.5,21Z" fill="#c72538"/>
    <path d="M50.773,26.572a26.828,26.828,0,0,1-9.546,0,1.864,1.864,0,0,0-1.839,2.965,8.044,8.044,0,0,0,13.224,0,1.864,1.864,0,0,0-1.839-2.965ZM46,31a6.183,6.183,0,0,1-4.8-2.4,29.289,29.289,0,0,0,9.6,0A6.182,6.182,0,0,1,46,31Z" fill="#c72538"/>
  </g>
</svg>
