<svg id="Capa_1" xmlns="http://www.w3.org/2000/svg" viewBox="0 0 509.327 509.327" width="300" height="300" xmlns:xlink="http://www.w3.org/1999/xlink">
  <g transform="matrix(1,0,0,1,0,0)">
    <path d="m439.539 389.136c-3.598-8.392-9.134-15.815-15.995-21.714-.752-5.414-1.517-10.808-2.284-16.183-2.902-20.353-5.644-39.577-7.481-59.634-2.412-26.337.77-46.162 4.798-71.261.547-3.404 8.236-61.603 4.6-97.891-3.675-36.681-13.975-64.757-30.611-83.448-18.109-20.345-46.165-34.638-73.219-37.304-23.032-2.269-103.35-2.269-126.382 0-21.976 2.165-44.727 11.945-62.419 26.833-3.169 2.667-3.576 7.399-.91 10.568 2.667 3.168 7.398 3.576 10.568.91 15.431-12.985 35.197-21.508 54.232-23.383 21.918-2.159 101.52-2.16 123.44 0 23.455 2.311 47.78 14.706 63.484 32.348 14.489 16.279 23.537 41.503 26.89 74.971 3.47 34.628-3.942 90.637-4.484 94.019-4.03 25.106-7.51 46.789-4.926 75.006 1.872 20.433 7.94 63.026 8.128 64.343-.121-.049-.239-.105-.36-.153l-91.057-35.906c-2.128-.839-3.503-2.859-3.503-5.146v-26.967c0-.439-.045-.866-.118-1.284 23.197-18.169 37.936-43.167 43.917-74.512.153.009.304.023.459.023 20.454 0 37.094-16.64 37.094-37.094s-16.641-37.094-37.094-37.094c-.323 0-.639.027-.952.067-1.278-7.654-2.887-15.481-4.857-23.485-.991-4.022-5.054-6.479-9.076-5.49-4.022.99-6.48 5.054-5.49 9.076 6.381 25.919 8.671 48.132 7.982 67.167-36.346-3.178-67.774-20.828-93.48-52.547-20.531-25.335-29.505-50.591-29.591-50.836-1.002-2.881-3.648-4.868-6.694-5.026-3.044-.164-5.884 1.544-7.18 4.304-16.247 34.632-44.45 52.902-51.032 56.812-24.374.871-39.712 17.155-39.712 37.052 0 20.454 16.64 37.094 37.094 37.094.09 0 .177-.01.266-.013 5.975 31.06 20.659 56.162 43.693 74.332v28.42c0 2.287-1.375 4.307-3.503 5.146l-88.256 34.801c.128-.899 6.08-42.652 7.952-63.085 2.585-28.216-.896-49.898-4.925-75.003-.543-3.382-1.098-6.839-1.651-10.396-11.226-72.12 1.054-123.827 16.289-148.169 2.198-3.511 1.133-8.139-2.378-10.336-3.512-2.199-8.14-1.132-10.336 2.378-12.328 19.697-19.746 46.423-22.048 79.438-2.327 33.371 4.768 86.056 5.314 89.461 4.028 25.098 7.21 44.922 4.798 71.258-1.837 20.058-4.579 39.282-7.481 59.636-.562 3.941-1.125 7.889-1.682 11.85-.072.513-.091 1.021-.06 1.518-8.5 6.266-15.327 14.74-19.523 24.526-14.105 32.895-21.257 67.72-21.257 103.51 0 9.199 7.484 16.684 16.684 16.684h113.799c4.142 0 7.5-3.358 7.5-7.5s-3.358-7.5-7.5-7.5h-40.478c.002-7.804 1.391-20.718 3.851-30.75.986-4.023-1.475-8.084-5.498-9.07-4.025-.986-8.084 1.475-9.07 5.498-2.611 10.649-4.28 24.645-4.274 34.322h-58.33c-.929 0-1.684-.755-1.684-1.684 0-33.746 6.744-66.582 20.044-97.596 4.079-9.512 11.469-17.38 20.625-22.104.138.135.277.27.428.395 24.743 20.666 60.895 35.545 102.099 42.079v11.183c0 12.983 6.901 24.381 17.225 30.729v36.998h-14.938c-4.142 0-7.5 3.358-7.5 7.5s3.358 7.5 7.5 7.5h235.1c9.2 0 16.684-7.484 16.684-16.684 0-35.79-7.152-70.615-21.258-103.507zm-61.138-212.858c0 11.61-9.004 21.15-20.395 22.022 1.349-13.801 1.15-28.534-.567-44.087 11.659.591 20.962 10.262 20.962 22.065zm-247.175 0c0-11.726 9.183-21.343 20.734-22.048-1.722 15.646-1.89 30.351-.545 44.055-11.294-.97-20.189-10.466-20.189-22.007zm39.789 45.868c-5.959-20.775-7.09-45.186-3.377-72.559 10.135-6.623 29.984-21.763 45.361-46.81 5.068 10.444 13.351 25.218 25.461 40.241 28.041 34.787 63.973 54.891 104.235 58.445-5.563 43.072-27.64 67.406-49.188 81.062-23.579 14.942-54.052 14.943-77.633 0-22.334-14.154-37.427-34.468-44.859-60.379zm-50.899 144.281 79.162-31.215c7.897-3.114 13-10.611 13-19.101v-18.304c13.136 7.267 27.771 10.912 42.412 10.912 14.621 0 29.236-3.635 42.358-10.882v18.273c0 8.489 5.103 15.986 13 19.101l79.162 31.215c-20.239 14.93-47.858 26.27-79.118 32.426v-3.522c0-19.877-16.171-36.048-36.048-36.048h-31.27c-19.877 0-36.048 16.171-36.048 36.048v4.886c-34.392-5.756-64.677-17.586-86.61-33.789zm101.611 28.904c0-11.606 9.442-21.048 21.048-21.048h31.27c11.606 0 21.048 9.442 21.048 21.048v31.27c0 11.606-9.442 21.048-21.048 21.048h-31.27c-11.606 0-21.048-9.442-21.048-21.048zm17.224 98.996v-31.678h3.823 31.27 3.823v31.678zm205.162 0h-58.329c.007-9.678-1.663-23.674-4.274-34.322-.986-4.023-5.05-6.484-9.07-5.498-4.023.986-6.484 5.047-5.498 9.07 2.46 10.031 3.849 22.946 3.851 30.75h-77.925v-36.998c10.324-6.347 17.225-17.746 17.225-30.729v-12.477c38.287-7.124 71.946-21.694 95.056-41.17 9.147 4.726 16.529 12.588 20.604 22.093 13.301 31.014 20.044 63.85 20.044 97.596 0 .929-.755 1.685-1.684 1.685z" fill="#c72538ff"/>
  </g>
</svg>
