<svg id="Layer_1" enable-background="new 0 0 512 512" viewBox="0 0 512 512" xmlns="http://www.w3.org/2000/svg" width="300" height="300" version="1.1">
  <g transform="matrix(1,0,0,1,0,0)">
    <path d="M487.211 228.824c-13.409 0-24.318 10.896-24.318 24.29v11.538c-22.539 21.877-50.635 34.631-85.617 38.841v-1.283c0-9.182-7.457-16.653-16.624-16.653h-55.068c-9.166 0-16.624 7.471-16.624 16.653v16.314c-9.497-5.366-19.076-10.743-28.797-16.191v-11.995c1.166-1.398 2.317-2.827 3.446-4.297 11.384-14.822 19.932-31.977 25.301-50.387 19.041-6.703 33.413-26.502 33.413-46.968 0-13.26-6.323-24.432-16.54-30.112 1.82-8.766 2.759-17.207 2.759-25.127 0-62.709-52.317-113.726-116.624-113.726s-116.626 51.017-116.626 113.725c0 7.934.933 16.373 2.746 25.122-10.226 5.682-16.556 16.859-16.556 30.118 0 20.462 14.383 40.261 33.438 46.967 5.367 18.412 13.912 35.567 25.293 50.388 1.133 1.475 2.287 2.909 3.457 4.312v11.979c-32.734 18.339-69.395 38.94-103.359 59.78-12.59 7.706-19.811 20.605-19.811 35.39v98.164c0 3.917 3.175 7.092 7.092 7.092h284.699 41.775 8.039c22.734 0 41.229-18.496 41.229-41.23 0-17.697-11.224-32.821-26.931-38.643v-19.955h4.249c9.166 0 16.624-7.458 16.624-16.624v-1.306c34.985 4.234 63.081 16.987 85.617 38.838v11.534c0 13.394 10.909 24.29 24.318 24.29 13.393 0 24.289-10.896 24.289-24.29v-182.258c0-13.394-10.896-24.29-24.289-24.29zm-203.989 102.749-59.535 58.552-21.801-21.82 52.789-52.789c9.631 5.399 19.138 10.738 28.547 16.057zm-91.334 26.672-50.375-50.375c15.714 12.443 33.199 19.262 50.404 19.262 17.12 0 34.519-6.758 50.177-19.093zm116.252-169.559c0 11.031-6.143 22.074-15.038 28.77 1.477-8.617 2.282-17.417 2.385-26.306 2.538-6.056 4.731-12.075 6.544-17.999 3.908 3.531 6.109 8.953 6.109 15.535zm-116.223-154.781c56.486 0 102.441 44.654 102.441 99.542 0 5.774-.577 11.894-1.693 18.258-2.859-14.99-8.459-28.445-19.25-36.306-10.894-7.937-25.387-9.071-43.077-3.374-26.123 8.419-52.466 3.853-82.901-14.381-13.011-7.783-24.47-8.974-34.055-3.539-14.012 7.947-20.314 28.575-23.059 52.091-.56-4.393-.848-8.656-.848-12.75 0-54.887 45.956-99.541 102.442-99.541zm-116.251 154.781c0-6.463 2.247-11.925 6.136-15.49 1.813 5.916 4.006 11.921 6.545 17.96.103 8.889.909 17.691 2.385 26.308-8.911-6.697-15.066-17.745-15.066-28.778zm26.844.517v-.691c-.006-47.729 6.005-75.342 17.869-82.07 1.704-.966 3.637-1.448 5.792-1.448 3.937 0 8.615 1.609 13.981 4.819 34.196 20.486 64.235 25.481 94.536 15.711 13.132-4.229 23.351-3.779 30.376 1.338 16.26 11.845 16.26 48.53 16.26 62.341 0 32.559-10.286 63.882-28.963 88.198-17.351 22.591-39.382 35.546-60.443 35.546-21.072 0-43.107-12.956-60.454-35.546-18.671-24.312-28.954-55.635-28.954-88.198zm26.611 126.333 52.767 52.767-21.824 21.824-59.493-58.535c9.722-5.499 19.286-10.865 28.55-16.056zm-114.438 81.966c0-9.877 4.629-18.149 13.04-23.298 19.507-11.969 39.947-23.879 60.025-35.331l67.383 66.297c1.381 1.358 3.177 2.037 4.974 2.037 1.815-.001 3.631-.693 5.014-2.077l26.767-26.767 26.74 26.764c1.384 1.386 3.2 2.08 5.017 2.08 1.796 0 3.592-.679 4.973-2.036l60.345-59.349v40.482c0 9.166 7.458 16.624 16.624 16.624h4.249v17.398h-17.543-146.054c-3.916 0-7.092 3.175-7.092 7.092s3.175 7.092 7.092 7.092h138.962v54.063h-270.516zm354.468 64.026c0 14.913-12.133 27.046-27.046 27.046h-8.039-34.683v-54.063h42.722c14.913 0 27.046 12.12 27.046 27.017zm-26.931-41.198c-.038 0-.076-.003-.115-.003h-18.088v-17.397h18.203zm20.873-34.025c0 1.322-1.118 2.44-2.441 2.44h-11.341-32.386-11.341c-1.323 0-2.441-1.118-2.441-2.44v-84.095c0-1.338 1.118-2.469 2.441-2.469h55.068c1.323 0 2.441 1.131 2.441 2.469zm14.183-15.581v-52.958c34.024-3.814 62.225-15.045 85.617-34.139v121.243c-23.39-19.075-51.591-30.308-85.617-34.146zm120.041 64.648c0 5.573-4.534 10.106-10.106 10.106-5.589 0-10.135-4.533-10.135-10.106v-182.258c0-5.573 4.547-10.106 10.135-10.106 5.573 0 10.106 4.533 10.106 10.106zm-366.01-7.953c0 3.917-3.175 7.092-7.092 7.092h-51.421c-3.916 0-7.092-3.175-7.092-7.092 0-.005.001-.009.001-.014s-.001-.009-.001-.014v-34.109c0-3.917 3.175-7.092 7.092-7.092s7.092 3.175 7.092 7.092v27.046h44.33c3.916-.001 7.091 3.174 7.091 7.091zm220.588-263.367c0 6.172 3.501 11.503 8.556 14.038v13.41c0 9.052 7.083 16.466 16.005 17.055.263 14.434 12.091 26.099 26.603 26.099 14.496 0 26.311-11.664 26.574-26.098 8.919-.575 16.004-7.994 16.004-17.055v-13.403c5.054-2.532 8.556-7.868 8.556-14.046 0-9.701 4.069-14.924 9.699-22.151 7.857-10.084 17.634-22.635 17.634-50.257 0-45.435-35.2-82.401-78.467-82.401-43.283 0-78.496 36.966-78.496 82.401 0 27.622 9.777 40.173 17.634 50.257 5.629 7.227 9.698 12.45 9.698 22.151zm51.163 56.418c-6.67 0-12.115-5.272-12.404-11.858h24.78c-.289 6.586-5.721 11.858-12.376 11.858zm25.467-26.042h-50.934c-1.631 0-2.957-1.314-2.957-2.928v-11.829h19.639 17.543 19.638v11.829c0 1.588-1.342 2.928-2.929 2.928zm-41.344-101.178h-9.848c-5.43 0-9.848-4.417-9.848-9.848s4.418-9.848 9.848-9.848 9.848 4.417 9.848 9.848zm14.183 14.184h3.36v58.053h-3.36zm1.694-84.008c35.446 0 64.284 30.602 64.284 68.217 0 22.75-7.442 32.303-14.639 41.54-6.241 8.011-12.694 16.295-12.694 30.869 0 .863-.57 1.435-.948 1.435h-20.155v-58.053h9.848c13.251 0 24.031-10.78 24.031-24.032s-10.78-24.032-24.031-24.032-24.031 10.78-24.031 24.032v9.848h-3.36v-9.848c0-13.251-10.78-24.032-24.031-24.032s-24.031 10.78-24.031 24.032 10.78 24.032 24.031 24.032h9.848v58.053h-20.127c-.398 0-.976-.559-.976-1.435 0-14.574-6.453-22.858-12.694-30.869-7.197-9.237-14.639-18.79-14.639-41.54.001-37.615 28.852-68.217 64.314-68.217zm15.849 69.824v-9.848c0-5.43 4.418-9.848 9.848-9.848s9.848 4.417 9.848 9.848-4.418 9.848-9.848 9.848z" fill="#c72538" stroke="none"/>
  </g>
</svg>
